<svg width="18" height="18" viewBox="0 0 18 18" fill="none" xmlns="http://www.w3.org/2000/svg">
<path d="M9 16.5C8.825 16.5 8.675 16.45 8.55 16.35C8.425 16.25 8.33125 16.1187 8.26875 15.9562C8.03125 15.2562 7.73125 14.6 7.36875 13.9875C7.01875 13.375 6.525 12.6562 5.8875 11.8312C5.25 11.0062 4.73125 10.2188 4.33125 9.46875C3.94375 8.71875 3.75 7.8125 3.75 6.75C3.75 5.2875 4.25625 4.05 5.26875 3.0375C6.29375 2.0125 7.5375 1.5 9 1.5C10.4625 1.5 11.7 2.0125 12.7125 3.0375C13.7375 4.05 14.25 5.2875 14.25 6.75C14.25 7.8875 14.0313 8.8375 13.5938 9.6C13.1688 10.35 12.675 11.0937 12.1125 11.8312C11.4375 12.7312 10.925 13.4812 10.575 14.0812C10.2375 14.6687 9.95625 15.2937 9.73125 15.9562C9.66875 16.1312 9.56875 16.2688 9.43125 16.3688C9.30625 16.4563 9.1625 16.5 9 16.5ZM9 8.625C9.525 8.625 9.96875 8.44375 10.3312 8.08125C10.6937 7.71875 10.875 7.275 10.875 6.75C10.875 6.225 10.6937 5.78125 10.3312 5.41875C9.96875 5.05625 9.525 4.875 9 4.875C8.475 4.875 8.03125 5.05625 7.66875 5.41875C7.30625 5.78125 7.125 6.225 7.125 6.75C7.125 7.275 7.30625 7.71875 7.66875 8.08125C8.03125 8.44375 8.475 8.625 9 8.625Z" fill="#DED2B8"/>
</svg>
