<svg width="44" height="44" viewBox="0 0 44 44" fill="none" xmlns="http://www.w3.org/2000/svg">
<circle cx="22" cy="22" r="21.5" fill="black" stroke="#DED2B8"/>
<path d="M17 27C16.5875 27 16.2344 26.8531 15.9406 26.5594C15.6469 26.2656 15.5 25.9125 15.5 25.5V16.5C15.5 16.0875 15.6469 15.7344 15.9406 15.4406C16.2344 15.1469 16.5875 15 17 15H29C29.4125 15 29.7656 15.1469 30.0594 15.4406C30.3531 15.7344 30.5 16.0875 30.5 16.5V25.5C30.5 25.9125 30.3531 26.2656 30.0594 26.5594C29.7656 26.8531 29.4125 27 29 27H17ZM23 21.75L17 18V25.5H29V18L23 21.75ZM23 20.25L29 16.5H17L23 20.25ZM17 18V16.5V25.5V18Z" fill="#DED2B8"/>
</svg>
