<svg width="44" height="44" viewBox="0 0 44 44" fill="none" xmlns="http://www.w3.org/2000/svg">
<circle cx="22" cy="22" r="21.5" fill="black" stroke="#DED2B8"/>
<path d="M30.9054 16.815C30.8163 16.4591 30.6349 16.1329 30.3794 15.8696C30.1239 15.6062 29.8035 15.4149 29.4504 15.315C28.1604 15 23.0004 15 23.0004 15C23.0004 15 17.8404 15 16.5504 15.345C16.1974 15.4449 15.8769 15.6362 15.6214 15.8996C15.366 16.1629 15.1845 16.4891 15.0954 16.845C14.8593 18.1542 14.7439 19.4822 14.7504 20.8125C14.742 22.1528 14.8575 23.491 15.0954 24.81C15.1936 25.1549 15.3792 25.4686 15.634 25.7209C15.8889 25.9731 16.2045 26.1554 16.5504 26.25C17.8404 26.595 23.0004 26.595 23.0004 26.595C23.0004 26.595 28.1604 26.595 29.4504 26.25C29.8035 26.1501 30.1239 25.9588 30.3794 25.6954C30.6349 25.4321 30.8163 25.1059 30.9054 24.75C31.1397 23.4507 31.2552 22.1328 31.2504 20.8125C31.2588 19.4722 31.1434 18.134 30.9054 16.815Z" stroke="#DED2B8" stroke-width="2.5" stroke-linecap="round" stroke-linejoin="round"/>
<path d="M21.3129 23.265L25.6254 20.8125L21.3129 18.36V23.265Z" stroke="#DED2B8" stroke-width="2.5" stroke-linecap="round" stroke-linejoin="round"/>
</svg>
